<svg xmlns="http://www.w3.org/2000/svg" viewBox="0 0 48 48" width="48px" height="48px">
  <path fill="#4285F4" d="M23.49 12.27a11.72 11.72 0 0 1 8.29 3.22l6.21-6.21A19.86 19.86 0 0 0 23.49 4c-11 0-20 9-20 20s9 20 20 20a19.86 19.86 0 0 0 14.33-5.89l-6.21-6.21a11.72 11.72 0 0 1-8.29 3.22c-6.43 0-11.72-5.29-11.72-11.72s5.29-11.72 11.72-11.72z"/>
  <path fill="#34A853" d="M3.49 24c0-1.66.23-3.27.66-4.78l-7.79-6.06A19.86 19.86 0 0 0 3.49 44c5.39 0 10.3-2.08 13.97-5.47l-6.56-6.37a11.73 11.73 0 0 1-8.41-8.16z"/>
  <path fill="#FBBC05" d="M23.49 44a19.86 19.86 0 0 0 14.33-5.89l-6.21-6.21a11.73 11.73 0 0 1-16.87-6.84h-8.19l-.13.06A20.03 20.03 0 0 0 23.49 44z"/>
  <path fill="#EA4335" d="M43.2 24.36c0-1.33-.12-2.6-.33-3.84H23.49v7.28h11.07c-.48 2.47-1.89 4.57-3.87 6.02l6.04 5.7c3.53-3.25 5.47-8.05 5.47-13.16z"/>
</svg>